<?xml version="1.0" standalone="no"?>
<!DOCTYPE svg PUBLIC "-//W3C//DTD SVG 1.1//EN" "http://www.w3.org/Graphics/SVG/1.1/DTD/svg11.dtd" >
<svg>
<metadata>
Created by FontForge 20090914 at Thu Oct 10 10:32:27 2013
 By www-data
Copyright 1993 DoubleAlex Team. All rights reserved.
</metadata>
<defs>
<font id="FavoritBookC" horiz-adv-x="616" >
  <font-face 
    font-family="FavoritBookC"
    font-weight="400"
    font-stretch="normal"
    units-per-em="1000"
    panose-1="2 0 5 3 0 0 0 0 0 0"
    ascent="800"
    descent="-200"
    x-height="470"
    cap-height="754"
    bbox="-66 -264 1178 1028"
    underline-thickness="50"
    underline-position="-100"
    stemh="78"
    stemv="84"
    unicode-range="U+0020-U+2265"
  />
<missing-glyph horiz-adv-x="500" 
 />
    <glyph glyph-name=".notdef" horiz-adv-x="500" 
 />
    <glyph glyph-name="space" unicode=" " horiz-adv-x="308" 
 />
    <glyph glyph-name="exclam" unicode="!" horiz-adv-x="338" 
d="M169 99c31 0 56 -25 56 -55c0 -31 -25 -57 -56 -57s-56 26 -56 57c0 30 25 55 56 55zM128 153v601h82v-601h-82z" />
    <glyph glyph-name="quotedbl" unicode="&#x22;" horiz-adv-x="457" 
d="M102 754h94l-18 -328h-58zM261 754h94l-18 -328h-58z" />
    <glyph glyph-name="numbersign" unicode="#" 
d="M236 754h77l-36 -204h124l35 204h79l-35 -204h92v-78h-105l-29 -171h101v-78h-115l-40 -223h-76l39 223h-123l-42 -223h-75l39 223h-102v78h115l29 171h-107v78h119zM266 472l-29 -171h123l29 171h-123z" />
    <glyph glyph-name="dollar" unicode="$" 
d="M356 344v-268c63 21 102 77 102 143c0 64 -50 100 -102 125zM290 463v219c-53 -10 -93 -58 -93 -113s49 -86 93 -106zM290 69v305c-91 38 -177 87 -177 198c0 104 78 175 177 189v103h66v-103c68 -9 128 -54 158 -114l-66 -43c-20 35 -50 69 -92 77v-247
c99 -42 186 -93 186 -213c0 -111 -78 -204 -186 -226v-110h-66v104c-108 5 -197 89 -216 194l81 23c9 -69 64 -132 135 -137z" />
    <glyph glyph-name="percent" unicode="%" horiz-adv-x="797" 
d="M200 767c92 0 168 -72 168 -165c0 -92 -77 -164 -168 -164s-168 71 -168 164s76 165 168 165zM200 703c-56 0 -104 -45 -104 -101c0 -55 48 -100 104 -100s104 45 104 100c0 56 -48 101 -104 101zM597 767l40 -24l-436 -756l-43 26zM598 316c92 0 168 -72 168 -165
c0 -92 -77 -164 -168 -164s-168 71 -168 164s76 165 168 165zM598 252c-56 0 -104 -45 -104 -101c0 -55 48 -100 104 -100s104 45 104 100c0 56 -48 101 -104 101z" />
    <glyph glyph-name="ampersand" unicode="&#x26;" horiz-adv-x="695" 
d="M302 492l7 5c44 32 94 62 94 122c0 46 -38 77 -82 77c-46 0 -83 -36 -83 -83c0 -38 25 -66 46 -96zM581 0l-81 106c-67 -60 -147 -119 -241 -119c-115 0 -220 86 -220 206c0 126 91 186 185 248l9 6c-34 47 -75 98 -75 160c0 95 71 160 165 160c85 0 160 -60 160 -148
c0 -90 -68 -139 -133 -188l159 -203l85 99l61 -50l-96 -112l128 -165h-106zM282 385l-36 -24c-57 -38 -125 -85 -125 -162c0 -71 62 -136 133 -136c76 0 142 59 196 106z" />
    <glyph glyph-name="quotesingle" unicode="'" horiz-adv-x="289" 
d="M98 754h94l-18 -328h-58z" />
    <glyph glyph-name="parenleft" unicode="(" horiz-adv-x="287" 
d="M184 788l71 -34c-57 -151 -80 -316 -80 -480s23 -329 80 -480l-71 -34c-70 149 -91 352 -91 514s21 365 91 514z" />
    <glyph glyph-name="parenright" unicode=")" horiz-adv-x="287" 
d="M32 754l71 34c70 -149 91 -352 91 -514s-21 -365 -91 -514l-71 34c57 151 80 316 80 480s-23 329 -80 480z" />
    <glyph glyph-name="asterisk" unicode="*" horiz-adv-x="592" 
d="M265 614l-6 140h75l-6 -140l132 49l24 -72l-136 -38l87 -110l-61 -45l-78 118l-78 -118l-61 45l88 110l-136 38l24 72z" />
    <glyph glyph-name="plus" unicode="+" 
d="M269 498h78v-203h203v-78h-203v-203h-78v203h-203v78h203v203z" />
    <glyph glyph-name="comma" unicode="," horiz-adv-x="308" 
d="M151 110l74 -26l-113 -256l-54 22z" />
    <glyph glyph-name="hyphen" horiz-adv-x="264" 
d="M12 278h241v-74h-241v74z" />
    <glyph glyph-name="period" unicode="." horiz-adv-x="308" 
d="M154 99c31 0 56 -25 56 -55c0 -31 -25 -57 -56 -57s-56 26 -56 57c0 30 25 55 56 55z" />
    <glyph glyph-name="slash" unicode="/" horiz-adv-x="570" 
d="M486 825l66 -30l-469 -952l-65 30z" />
    <glyph glyph-name="zero" unicode="0" 
d="M308 767c191 0 270 -236 270 -391c0 -186 -98 -389 -270 -389s-270 203 -270 389c0 155 79 391 270 391zM308 689c-142 0 -188 -210 -186 -317c2 -106 47 -307 186 -307s184 201 186 307c2 107 -44 317 -186 317z" />
    <glyph glyph-name="one" unicode="1" 
d="M283 676h-125l44 78h165v-754h-84v676z" />
    <glyph glyph-name="two" unicode="2" 
d="M211 78h318v-78h-488l353 417c30 36 51 77 51 126c0 84 -68 146 -150 146c-91 0 -150 -67 -152 -155h-84c3 132 100 233 233 233c126 0 237 -92 237 -223c0 -61 -18 -114 -57 -159z" />
    <glyph glyph-name="three" unicode="3" 
d="M271 357v78c80 3 149 27 149 122c0 80 -53 132 -132 132c-75 0 -117 -50 -124 -121h-83c12 120 85 199 209 199c121 0 214 -82 214 -206c0 -67 -36 -134 -97 -165c73 -33 108 -108 108 -185c0 -132 -105 -224 -234 -224c-122 0 -222 83 -224 209h82
c4 -77 69 -131 145 -131c84 0 147 68 147 151c0 96 -68 144 -160 141z" />
    <glyph glyph-name="four" unicode="4" 
d="M476 200h93v-78h-93v-122h-84v122h-386l468 674h2v-596zM392 200v341h-2l-237 -341h239z" />
    <glyph glyph-name="five" unicode="5" 
d="M523 676h-241l-49 -161l45 4c149 0 251 -117 251 -263c0 -156 -123 -269 -277 -269c-99 0 -181 50 -231 135l67 48c34 -61 95 -105 167 -105c111 0 190 83 190 193c0 107 -83 183 -188 183c-52 0 -100 -20 -143 -48l109 361h300v-78z" />
    <glyph glyph-name="six" unicode="6" 
d="M363 767l63 -47l-174 -234l2 -2c20 7 43 11 66 11c137 0 244 -113 244 -249c0 -144 -118 -259 -260 -259c-143 0 -260 116 -260 258c0 69 30 128 69 181zM304 65c98 0 176 80 176 178s-79 174 -176 174c-98 0 -176 -76 -176 -174s78 -178 176 -178z" />
    <glyph glyph-name="seven" unicode="7" 
d="M463 676h-412v78h556l-506 -767l-66 39z" />
    <glyph glyph-name="eight" unicode="8" 
d="M308 355c-82 0 -146 -65 -146 -145s64 -145 146 -145s146 65 146 145s-64 145 -146 145zM308 767c118 0 211 -89 211 -210c0 -66 -34 -132 -92 -165c71 -32 111 -104 111 -181c0 -130 -100 -224 -230 -224s-230 94 -230 224c0 77 40 149 111 181c-58 33 -92 99 -92 165
c0 121 93 210 211 210zM308 689c-72 0 -131 -58 -131 -130c0 -73 59 -132 131 -132s131 59 131 132c0 72 -59 130 -131 130z" />
    <glyph glyph-name="nine" unicode="9" 
d="M245 -13l-63 43l174 239l-2 2c-20 -6 -42 -10 -65 -10c-138 0 -244 112 -244 249c0 143 118 257 260 257s260 -114 260 -257c0 -68 -31 -127 -70 -181zM305 689c-98 0 -176 -79 -176 -176c0 -98 78 -174 176 -174c97 0 176 76 176 174c0 97 -79 176 -176 176z" />
    <glyph glyph-name="colon" unicode=":" horiz-adv-x="308" 
d="M154 99c31 0 56 -25 56 -55c0 -31 -25 -57 -56 -57s-56 26 -56 57c0 30 25 55 56 55zM154 483c31 0 56 -25 56 -55c0 -31 -25 -57 -56 -57s-56 26 -56 57c0 30 25 55 56 55z" />
    <glyph glyph-name="semicolon" unicode=";" horiz-adv-x="308" 
d="M153 110l74 -26l-113 -256l-54 22zM179 483c31 0 56 -25 56 -55c0 -31 -25 -57 -56 -57s-56 26 -56 57c0 30 25 55 56 55z" />
    <glyph glyph-name="less" unicode="&#x3c;" 
d="M550 498v-85l-368 -157l368 -157v-85l-484 207v70z" />
    <glyph glyph-name="equal" unicode="=" 
d="M66 373h484v-78h-484v78zM66 217h484v-78h-484v78z" />
    <glyph glyph-name="greater" unicode="&#x3e;" 
d="M66 413v85l484 -207v-70l-484 -207v85l368 157z" />
    <glyph glyph-name="question" unicode="?" horiz-adv-x="488" 
d="M325 328h81c3 -96 -66 -173 -163 -173c-93 0 -163 71 -163 163c0 90 61 129 137 153c64 21 127 33 127 115c0 61 -43 104 -103 104c-57 0 -98 -44 -98 -99c0 -16 2 -32 6 -48h-83l-4 53c-8 104 85 171 184 171c102 0 180 -78 180 -180c0 -49 -18 -101 -54 -134
c-35 -31 -89 -45 -133 -58c-43 -12 -77 -33 -77 -83c0 -45 37 -80 82 -80c56 0 81 46 81 96zM242 99c31 0 56 -25 56 -55c0 -31 -25 -57 -56 -57s-56 26 -56 57c0 30 25 55 56 55z" />
    <glyph glyph-name="at" unicode="@" horiz-adv-x="800" 
d="M261 346c0 -68 38 -120 108 -120c89 0 125 75 134 146c10 80 -33 135 -102 135c-81 0 -140 -84 -140 -161zM528 505l14 61h71l-50 -255c-6 -33 -20 -85 14 -85c46 0 111 96 116 191c10 176 -115 278 -278 278c-178 0 -307 -136 -307 -318c0 -192 143 -318 324 -318
c83 0 149 16 191 46l70 -51c-70 -36 -148 -67 -269 -67c-215 0 -388 165 -388 390c0 222 169 390 382 390c88 0 169 -27 235 -86c68 -60 112 -136 112 -229c0 -82 -22 -158 -62 -210c-48 -63 -106 -88 -154 -86c-28 1 -48 23 -54 61c-34 -34 -76 -61 -136 -61
c-88 0 -168 81 -168 183c0 120 80 236 204 236c51 0 93 -18 133 -70z" />
    <glyph glyph-name="A" unicode="A" horiz-adv-x="699" 
d="M511 214h-322l-91 -214h-92l332 754h32l323 -754h-93zM478 292l-126 302l-129 -302h255z" />
    <glyph glyph-name="B" unicode="B" horiz-adv-x="568" 
d="M160 350v-272h84c94 0 193 23 193 138c0 117 -112 134 -204 134h-73zM76 0v754h124c137 0 252 -50 252 -204c0 -61 -23 -113 -74 -147c90 -22 143 -103 143 -193c0 -150 -121 -210 -270 -210h-175zM160 676v-254h32c95 0 176 11 176 128c0 114 -72 126 -175 126h-33z" />
    <glyph glyph-name="C" unicode="C" horiz-adv-x="717" 
d="M651 693v-104c-60 62 -143 100 -230 100c-168 0 -304 -146 -304 -312s137 -312 306 -312c85 0 168 40 228 100v-104c-65 -47 -145 -74 -225 -74c-213 0 -393 173 -393 387c0 216 177 393 393 393c84 0 158 -24 225 -74z" />
    <glyph glyph-name="D" unicode="D" horiz-adv-x="678" 
d="M76 0v754h142c113 0 205 -15 294 -91c86 -74 125 -175 125 -287c0 -110 -40 -207 -123 -281c-90 -80 -180 -95 -298 -95h-140zM160 78h61c92 0 169 13 238 78c62 58 94 137 94 221c0 86 -33 169 -98 226c-69 61 -145 73 -234 73h-61v-598z" />
    <glyph glyph-name="E" unicode="E" horiz-adv-x="534" 
d="M76 0v754h391v-78h-307v-224h298v-78h-298v-296h307v-78h-391z" />
    <glyph glyph-name="F" unicode="F" horiz-adv-x="478" 
d="M419 676h-259v-224h251v-78h-251v-374h-84v754h343v-78z" />
    <glyph glyph-name="G" unicode="G" horiz-adv-x="820" 
d="M463 379h314c2 -102 -9 -186 -78 -266s-174 -126 -279 -126c-212 0 -388 176 -388 388c0 216 176 392 393 392c132 0 239 -59 319 -163l-61 -57c-63 89 -148 142 -259 142c-172 0 -308 -145 -308 -315c0 -80 32 -156 88 -213c55 -55 135 -96 214 -96
c131 0 269 96 269 236h-224v78z" />
    <glyph glyph-name="H" unicode="H" horiz-adv-x="714" 
d="M164 448h386v306h84v-754h-84v370h-386v-370h-84v754h84v-306z" />
    <glyph glyph-name="I" unicode="I" horiz-adv-x="239" 
d="M162 754v-754h-84v754h84z" />
    <glyph glyph-name="J" unicode="J" horiz-adv-x="314" 
d="M236 754v-532c0 -60 0 -123 -38 -173c-31 -41 -79 -62 -130 -62c-50 0 -96 24 -134 56l47 65c27 -25 50 -43 89 -43c82 0 82 98 82 157v532h84z" />
    <glyph glyph-name="K" unicode="K" horiz-adv-x="611" 
d="M160 431l321 323h113l-354 -351l366 -403h-116l-309 346l-21 -21v-325h-84v754h84v-323z" />
    <glyph glyph-name="L" unicode="L" horiz-adv-x="375" 
d="M160 754v-676h208v-78h-292v754h84z" />
    <glyph glyph-name="M" unicode="M" horiz-adv-x="896" 
d="M21 0l145 754h27l255 -590l256 590h27l145 -754h-86l-97 510h-2l-229 -510h-28l-228 510h-2l-97 -510h-86z" />
    <glyph glyph-name="N" unicode="N" horiz-adv-x="834" 
d="M81 0v754h30l558 -584v584h84v-754h-32l-556 581v-581h-84z" />
    <glyph glyph-name="O" unicode="O" horiz-adv-x="862" 
d="M431 767c215 0 393 -175 393 -391c0 -217 -178 -389 -393 -389s-393 172 -393 389c0 216 178 391 393 391zM431 689c-173 0 -309 -141 -309 -312c0 -170 138 -312 309 -312s309 142 309 312c0 171 -136 312 -309 312z" />
    <glyph glyph-name="P" unicode="P" horiz-adv-x="503" 
d="M160 330v-330h-84v754h124c65 0 132 -2 187 -40c56 -39 85 -105 85 -172c0 -61 -25 -123 -72 -162c-51 -42 -116 -50 -179 -50h-61zM160 676v-268h56c93 0 172 28 172 136c0 123 -99 132 -197 132h-31z" />
    <glyph glyph-name="Q" unicode="Q" horiz-adv-x="862" 
d="M527 304l130 -136c56 59 83 128 83 209c0 172 -136 312 -309 312s-309 -141 -309 -312c0 -170 138 -312 309 -312c56 0 122 21 168 56l-182 183h110zM721 -7l-63 68c-62 -47 -151 -74 -227 -74c-215 0 -393 172 -393 389c0 216 178 391 393 391c218 0 393 -177 393 -393
c0 -105 -38 -190 -109 -266l113 -115h-107z" />
    <glyph glyph-name="R" unicode="R" horiz-adv-x="542" 
d="M160 676v-271h26c95 0 191 18 191 135c0 124 -91 136 -192 136h-25zM160 331v-331h-84v754h109c143 0 276 -38 276 -208c0 -116 -73 -198 -189 -208l240 -338h-103l-228 331h-21z" />
    <glyph glyph-name="S" unicode="S" horiz-adv-x="559" 
d="M485 650l-67 -43c-30 52 -66 82 -130 82c-67 0 -125 -48 -125 -117c0 -65 67 -95 118 -118l50 -22c98 -43 181 -92 181 -212c0 -132 -106 -233 -237 -233c-121 0 -211 78 -235 195l82 23c11 -77 70 -140 151 -140s155 62 155 147c0 88 -68 119 -139 150l-46 20
c-89 39 -164 85 -164 193c0 117 99 192 211 192c84 0 155 -43 195 -117z" />
    <glyph glyph-name="T" unicode="T" horiz-adv-x="470" 
d="M276 676v-676h-84v676h-182v78h450v-78h-184z" />
    <glyph glyph-name="U" unicode="U" horiz-adv-x="685" 
d="M158 754v-449c0 -56 -2 -120 33 -168c33 -46 97 -72 152 -72c54 0 113 25 148 67c40 48 37 114 37 173v449h84v-472c0 -82 -7 -146 -66 -209c-53 -55 -127 -86 -203 -86c-71 0 -144 27 -195 77c-66 63 -74 132 -74 218v472h84z" />
    <glyph glyph-name="V" unicode="V" horiz-adv-x="624" 
d="M97 754l215 -575l215 575h91l-289 -754h-34l-289 754h91z" />
    <glyph glyph-name="W" unicode="W" horiz-adv-x="1091" 
d="M104 754l198 -565l228 565h32l228 -565l198 565h91l-275 -754h-30l-228 568l-228 -568h-30l-275 754h91z" />
    <glyph glyph-name="X" unicode="X" horiz-adv-x="564" 
d="M236 390l-204 364h96l154 -284l154 284h96l-204 -364l223 -390h-96l-173 310l-173 -310h-96z" />
    <glyph glyph-name="Y" unicode="Y" horiz-adv-x="593" 
d="M255 324l-247 430h97l192 -336l192 336h97l-247 -430v-324h-84v324z" />
    <glyph glyph-name="Z" unicode="Z" horiz-adv-x="586" 
d="M153 78h401v-78h-540l411 676h-359v78h499z" />
    <glyph glyph-name="bracketleft" unicode="[" horiz-adv-x="315" 
d="M186 714v-880h108v-74h-190v1028h190v-74h-108z" />
    <glyph glyph-name="backslash" unicode="\" horiz-adv-x="570" 
d="M18 795l66 30l468 -825l-65 -30z" />
    <glyph glyph-name="bracketright" unicode="]" horiz-adv-x="315" 
d="M129 -166v880h-108v74h190v-1028h-190v74h108z" />
    <glyph glyph-name="asciicircum" unicode="^" 
d="M66 322l206 432h72l206 -432h-89l-153 328l-155 -328h-87z" />
    <glyph glyph-name="underscore" unicode="_" horiz-adv-x="500" 
d="M500 -113v-75h-500v75h500z" />
    <glyph glyph-name="grave" unicode="`" horiz-adv-x="358" 
d="M78 706l84 38l119 -164l-50 -28z" />
    <glyph glyph-name="a" unicode="a" horiz-adv-x="577" 
d="M271 409c-93 0 -153 -81 -153 -169c0 -92 54 -179 154 -179c103 0 157 83 157 178c0 94 -59 170 -158 170zM505 470v-470h-80v65h-2c-41 -52 -96 -78 -162 -78c-138 0 -225 117 -225 247c0 134 85 249 226 249c64 0 122 -30 161 -80h2v67h80z" />
    <glyph glyph-name="b" unicode="b" horiz-adv-x="577" 
d="M301 409c-93 0 -153 -81 -153 -169c0 -92 54 -179 154 -179c103 0 157 83 157 178c0 94 -59 170 -158 170zM72 0v825h80v-422h2c38 50 97 80 161 80c140 0 226 -115 226 -248c0 -131 -87 -248 -225 -248c-65 0 -124 27 -162 78h-2v-65h-80z" />
    <glyph glyph-name="c" unicode="c" horiz-adv-x="476" 
d="M425 436v-106h-2c-37 47 -83 79 -146 79c-97 0 -166 -80 -166 -174c0 -93 64 -174 162 -174c67 0 114 30 153 81h2v-107c-46 -31 -93 -48 -149 -48c-142 0 -250 106 -250 248c0 140 113 248 251 248c51 0 103 -17 145 -47z" />
    <glyph glyph-name="d" unicode="d" horiz-adv-x="577" 
d="M271 409c-93 0 -153 -81 -153 -169c0 -92 54 -179 154 -179c103 0 157 83 157 178c0 94 -59 170 -158 170zM425 0v65h-2c-39 -51 -98 -78 -162 -78c-138 0 -225 117 -225 247c0 134 85 249 226 249c63 0 123 -30 161 -80h2v422h80v-825h-80z" />
    <glyph glyph-name="e" unicode="e" horiz-adv-x="519" 
d="M485 218h-369c1 -87 63 -157 154 -157c68 0 112 41 143 97l68 -39c-45 -84 -121 -132 -217 -132c-140 0 -230 107 -230 242c0 139 81 254 228 254c151 0 231 -125 223 -265zM120 286h281c-11 68 -68 123 -138 123c-69 0 -133 -55 -143 -123z" />
    <glyph glyph-name="f" unicode="f" horiz-adv-x="274" 
d="M163 396v-396h-80v396h-44v74h44v187c0 39 0 88 21 122c26 42 73 59 121 59c19 0 38 -4 57 -10v-81c-18 6 -34 11 -54 11c-65 0 -65 -46 -65 -129v-159h119v-74h-119z" />
    <glyph glyph-name="g" unicode="g" horiz-adv-x="580" 
d="M266 409c-93 0 -153 -81 -153 -169c0 -92 54 -179 154 -179c103 0 157 83 157 178c0 94 -59 170 -158 170zM500 470v-447c0 -75 0 -140 -48 -202c-44 -56 -112 -83 -182 -83c-131 0 -228 83 -231 216h80c1 -87 64 -142 150 -142c124 0 151 91 151 197v56h-2
c-38 -49 -100 -78 -163 -78c-137 0 -224 115 -224 246c0 132 88 250 227 250c65 0 122 -29 160 -80h2v67h80z" />
    <glyph glyph-name="h" unicode="h" horiz-adv-x="528" 
d="M76 825h80v-410l2 -2c33 45 76 70 134 70c130 0 160 -94 160 -204v-279h-80v265c0 76 -6 144 -99 144c-110 0 -117 -102 -117 -186v-223h-80v825z" />
    <glyph glyph-name="i" unicode="i" horiz-adv-x="262" 
d="M171 470v-470h-80v470h80zM131 704c31 0 57 -26 57 -57c0 -32 -26 -57 -57 -57s-57 25 -57 57c0 31 26 57 57 57z" />
    <glyph glyph-name="j" unicode="j" horiz-adv-x="262" 
d="M171 470v-734h-80v734h80zM131 704c31 0 57 -26 57 -57c0 -32 -26 -57 -57 -57s-57 25 -57 57c0 31 26 57 57 57z" />
    <glyph glyph-name="k" unicode="k" horiz-adv-x="470" 
d="M152 825v-529l171 174h107l-201 -200l239 -270h-106l-189 214l-21 -21v-193h-80v825h80z" />
    <glyph glyph-name="l" unicode="l" horiz-adv-x="227" 
d="M154 825v-825h-80v825h80z" />
    <glyph glyph-name="m" unicode="m" horiz-adv-x="768" 
d="M156 470v-51h2c25 39 65 64 113 64c55 0 105 -29 130 -78c28 52 84 78 141 78c120 0 150 -98 150 -197v-286h-80v273c0 61 -4 136 -86 136c-92 0 -102 -89 -102 -160v-249h-80v267c0 58 -7 142 -84 142c-94 0 -104 -95 -104 -166v-243h-80v470h80z" />
    <glyph glyph-name="n" unicode="n" horiz-adv-x="528" 
d="M156 470v-57h2c33 45 76 70 134 70c130 0 160 -94 160 -204v-279h-80v265c0 76 -6 144 -99 144c-110 0 -117 -102 -117 -186v-223h-80v470h80z" />
    <glyph glyph-name="o" unicode="o" horiz-adv-x="562" 
d="M281 -13c-137 0 -247 109 -247 247s109 249 247 249s247 -111 247 -249s-110 -247 -247 -247zM281 409c-99 0 -167 -79 -167 -174c0 -96 68 -174 167 -174s167 78 167 174c0 95 -68 174 -167 174z" />
    <glyph glyph-name="p" unicode="p" horiz-adv-x="577" 
d="M301 409c-93 0 -153 -81 -153 -169c0 -92 54 -179 154 -179c103 0 157 83 157 178c0 94 -59 170 -158 170zM152 470v-67h2c39 52 97 80 162 80c138 0 225 -119 225 -249c0 -134 -85 -247 -226 -247c-64 0 -123 28 -161 79h-2v-330h-80v734h80z" />
    <glyph glyph-name="q" unicode="q" horiz-adv-x="577" 
d="M271 409c-93 0 -153 -81 -153 -169c0 -92 54 -179 154 -179c103 0 157 83 157 178c0 94 -59 170 -158 170zM505 470v-734h-80v330h-2c-38 -51 -98 -79 -161 -79c-141 0 -226 113 -226 246c0 131 86 250 225 250c64 0 123 -28 162 -80h2v67h80z" />
    <glyph glyph-name="r" unicode="r" horiz-adv-x="335" 
d="M152 470v-51h2c28 37 52 64 104 64c27 0 49 -9 72 -22l-38 -73c-16 11 -27 21 -48 21c-88 0 -92 -113 -92 -174v-235h-80v470h80z" />
    <glyph glyph-name="s" unicode="s" horiz-adv-x="399" 
d="M333 396l-67 -35c-11 25 -35 48 -64 48c-28 0 -58 -22 -58 -52c0 -43 54 -59 109 -82s109 -56 109 -135c0 -89 -72 -153 -159 -153c-79 0 -141 45 -166 119l71 30c20 -44 43 -75 96 -75c43 0 76 29 76 72c0 105 -212 69 -212 217c0 79 64 133 140 133
c54 0 104 -38 125 -87z" />
    <glyph glyph-name="t" unicode="t" horiz-adv-x="240" 
d="M160 396v-396h-80v396h-49v74h49v169h80v-169h84v-74h-84z" />
    <glyph glyph-name="u" unicode="u" horiz-adv-x="512" 
d="M150 470v-262c0 -79 9 -147 106 -147s106 68 106 147v262h80v-271c0 -125 -47 -212 -186 -212s-186 87 -186 212v271h80z" />
    <glyph glyph-name="v" unicode="v" horiz-adv-x="463" 
d="M92 470l140 -316l140 316h90l-216 -470h-28l-217 470h91z" />
    <glyph glyph-name="w" unicode="w" horiz-adv-x="760" 
d="M94 470l139 -318l131 318h30l132 -318l140 318h91l-218 -470h-29l-131 317l-131 -317h-29l-216 470h91z" />
    <glyph glyph-name="x" unicode="x" horiz-adv-x="498" 
d="M201 250l-171 220h98l123 -160l123 160h100l-172 -220l195 -250h-97l-149 191l-150 -191h-100z" />
    <glyph glyph-name="y" unicode="y" horiz-adv-x="498" 
d="M214 44l-216 426h93l166 -337l152 337h91l-347 -734h-91z" />
    <glyph glyph-name="z" unicode="z" horiz-adv-x="519" 
d="M172 74h324v-74h-486l339 396h-276v74h437z" />
    <glyph glyph-name="braceleft" unicode="{" horiz-adv-x="334" 
d="M51 242v64c68 21 75 73 75 160v187c0 81 55 135 85 135h73v-74h-40c-36 0 -36 -30 -36 -76v-189c0 -117 -63 -167 -76 -175c13 -8 76 -58 76 -176v-188c0 -46 0 -76 36 -76h40v-74h-73c-30 0 -85 54 -85 135v186c0 88 -7 140 -75 161z" />
    <glyph glyph-name="bar" unicode="|" horiz-adv-x="570" 
d="M324 825v-825h-78v825h78z" />
    <glyph glyph-name="braceright" unicode="}" horiz-adv-x="334" 
d="M283 306v-64c-68 -21 -75 -73 -75 -161v-186c0 -81 -55 -135 -85 -135h-73v74h40c36 0 36 30 36 76v188c0 118 63 168 76 176c-13 8 -76 58 -76 175v189c0 46 0 76 -36 76h-40v74h73c30 0 85 -54 85 -135v-187c0 -87 7 -139 75 -160z" />
    <glyph glyph-name="asciitilde" unicode="~" 
d="M135 172l-69 28c29 80 74 147 139 147c34 0 74 -22 109 -45c34 -22 70 -54 97 -54c28 0 55 43 71 97l68 -28c-27 -80 -73 -147 -139 -147c-34 0 -72 24 -102 44c-44 29 -77 54 -104 54c-28 0 -53 -42 -70 -96z" />
    <glyph glyph-name="afii10051" unicode="&#x402;" horiz-adv-x="680" 
d="M276 358v-358h-84v676h-182v78h450v-78h-184v-229c39 23 84 36 128 36c138 0 251 -108 251 -248c0 -142 -112 -248 -230 -248c-56 0 -71 3 -105 20v97h2c19 -17 42 -43 109 -43c76 0 142 81 142 174c0 94 -69 174 -166 174c-55 0 -103 -24 -131 -51z" />
    <glyph glyph-name="afii10052" unicode="&#x403;" horiz-adv-x="450" 
d="M301 1028l84 -38l-153 -154l-50 28zM439 676h-279v-676h-84v754h363v-78z" />
    <glyph glyph-name="quotesinglbase" unicode="&#x201a;" horiz-adv-x="289" 
d="M155 110l74 -26l-114 -256l-54 22z" />
    <glyph glyph-name="afii10100" unicode="&#x453;" horiz-adv-x="398" 
d="M156 396v-396h-80v470h314v-74h-234zM279 760l84 -38l-153 -154l-50 28z" />
    <glyph glyph-name="quotedblbase" unicode="&#x201e;" horiz-adv-x="464" 
d="M155 110l74 -26l-114 -256l-54 22zM330 110l74 -26l-114 -256l-54 22z" />
    <glyph glyph-name="ellipsis" unicode="&#x2026;" horiz-adv-x="1000" 
d="M168 99c31 0 56 -25 56 -55c0 -31 -25 -57 -56 -57s-56 26 -56 57c0 30 25 55 56 55zM500 99c31 0 56 -25 56 -55c0 -31 -25 -57 -56 -57s-56 26 -56 57c0 30 25 55 56 55zM832 99c31 0 56 -25 56 -55c0 -31 -25 -57 -56 -57s-56 26 -56 57c0 30 25 55 56 55z" />
    <glyph glyph-name="dagger" unicode="&#x2020;" horiz-adv-x="592" 
d="M255 754h82v-185h167v-78h-167v-654h-82v654h-167v78h167v185z" />
    <glyph glyph-name="daggerdbl" unicode="&#x2021;" horiz-adv-x="592" 
d="M255 754h82v-185h167v-78h-167v-363h167v-78h-167v-213h-82v213h-167v78h167v363h-167v78h167v185z" />
    <glyph glyph-name="perthousand" unicode="&#x2030;" horiz-adv-x="1212" 
d="M202 767c92 0 168 -72 168 -165c0 -92 -77 -164 -168 -164s-168 71 -168 164s76 165 168 165zM202 703c-56 0 -104 -45 -104 -101c0 -55 48 -100 104 -100s104 45 104 100c0 56 -48 101 -104 101zM599 767l40 -24l-436 -756l-43 26zM600 316c92 0 168 -72 168 -165
c0 -92 -77 -164 -168 -164s-168 71 -168 164s76 165 168 165zM600 252c-56 0 -104 -45 -104 -101c0 -55 48 -100 104 -100s104 45 104 100c0 56 -48 101 -104 101zM1010 316c92 0 168 -72 168 -165c0 -92 -77 -164 -168 -164s-168 71 -168 164s76 165 168 165zM1010 252
c-56 0 -104 -45 -104 -101c0 -55 48 -100 104 -100s104 45 104 100c0 56 -48 101 -104 101z" />
    <glyph glyph-name="afii10058" unicode="&#x409;" horiz-adv-x="950" 
d="M915 220c0 -164 -121 -220 -270 -220h-145v676h-276v-440c0 -144 -63 -236 -192 -236h-22v74h8c95 0 122 78 122 186v494h444v-326h88c122 0 243 -48 243 -208zM831 216c0 117 -112 134 -204 134h-43v-272h54c94 0 193 23 193 138z" />
    <glyph glyph-name="guilsinglleft" unicode="&#x2039;" horiz-adv-x="330" 
d="M127 240l135 -166l-53 -41l-168 207l168 213l53 -42z" />
    <glyph glyph-name="afii10059" unicode="&#x40a;" horiz-adv-x="967" 
d="M604 428h88c122 0 243 -48 243 -208c0 -164 -121 -220 -270 -220h-145v350h-356v-350h-84v754h84v-326h356v326h84v-326zM604 350v-272h54c94 0 193 23 193 138c0 117 -112 134 -204 134h-43z" />
    <glyph glyph-name="afii10061" unicode="&#x40c;" horiz-adv-x="611" 
d="M361 1028l84 -38l-153 -154l-50 28zM160 431l321 323h113l-354 -351l366 -403h-116l-309 346l-21 -21v-325h-84v754h84v-323z" />
    <glyph glyph-name="afii10060" unicode="&#x40b;" horiz-adv-x="700" 
d="M650 0h-84v276c0 76 -68 98 -154 98c-32 0 -95 -3 -136 -8v-366h-84v676h-182v78h450v-78h-184v-236c45 4 111 8 150 8c121 0 224 -63 224 -180v-268z" />
    <glyph glyph-name="afii10145" unicode="&#x40f;" horiz-adv-x="714" 
d="M634 0h-225v-206h-84v206h-245v754h84v-676h386v676h84v-754z" />
    <glyph glyph-name="afii10099" unicode="&#x452;" horiz-adv-x="498" 
d="M277 409c-110 0 -117 -102 -117 -186v-223h-80v568h-49v74h49v183h80v-183h164v-74h-164v-153l2 -2c33 45 76 70 134 70c130 0 160 -94 160 -204c0 -148 -80 -293 -152 -413h-90c91 131 162 257 162 402c0 76 -6 141 -99 141z" />
    <glyph glyph-name="quoteleft" unicode="&#x2018;" horiz-adv-x="289" 
d="M135 485l-74 27l114 255l54 -21z" />
    <glyph glyph-name="quoteright" unicode="&#x2019;" horiz-adv-x="289" 
d="M154 767l74 -27l-114 -255l-54 21z" />
    <glyph glyph-name="quotedblleft" unicode="&#x201c;" horiz-adv-x="457" 
d="M303 485l-74 27l114 255l54 -21zM135 485l-74 27l114 255l54 -21z" />
    <glyph glyph-name="quotedblright" unicode="&#x201d;" horiz-adv-x="457" 
d="M155 767l74 -27l-114 -255l-54 21zM323 767l74 -27l-114 -255l-54 21z" />
    <glyph glyph-name="bullet" unicode="&#x2022;" horiz-adv-x="592" 
d="M296 189c-103 0 -188 83 -188 188c-1 105 83 189 188 189s189 -84 189 -189s-86 -188 -189 -188z" />
    <glyph glyph-name="endash" unicode="&#x2013;" horiz-adv-x="500" 
d="M10 278h480v-74h-480v74z" />
    <glyph glyph-name="emdash" unicode="&#x2014;" horiz-adv-x="1000" 
d="M10 278h980v-74h-980v74z" />
    <glyph glyph-name="trademark" unicode="&#x2122;" horiz-adv-x="940" 
d="M884 301h-52l-58 306h-1l-138 -306h-17l-136 306h-2l-58 -306h-51l87 452h16l153 -354l153 354h17zM339 707h-110v-406h-51v406h-109v46h270v-46z" />
    <glyph glyph-name="afii10106" unicode="&#x459;" horiz-adv-x="756" 
d="M727 148c0 -62 -25 -148 -159 -148h-201v396h-191v-256c0 -79 -46 -140 -148 -140h-14v78h2c56 0 80 23 80 97v295h351v-182h98c124 0 182 -45 182 -140zM645 143c0 35 -22 71 -98 71h-100v-140h97c29 0 101 10 101 69z" />
    <glyph glyph-name="guilsinglright" unicode="&#x203a;" horiz-adv-x="330" 
d="M68 74l135 166l-135 171l53 42l168 -213l-168 -207z" />
    <glyph glyph-name="afii10107" unicode="&#x45a;" horiz-adv-x="772" 
d="M457 74h97c29 0 101 10 101 69c0 35 -22 71 -98 71h-100v-140zM457 288h98c124 0 182 -45 182 -140c0 -62 -25 -148 -159 -148h-201v214h-221v-214h-80v470h80v-182h221v182h80v-182z" />
    <glyph glyph-name="afii10109" unicode="&#x45c;" horiz-adv-x="470" 
d="M309 760l84 -38l-153 -154l-50 28zM152 470v-190l171 190h107l-201 -216l239 -254h-106l-189 198l-21 -21v-177h-80v470h80z" />
    <glyph glyph-name="afii10108" unicode="&#x45b;" horiz-adv-x="528" 
d="M160 0h-80v568h-49v74h49v183h80v-183h164v-74h-164v-153l2 -2c33 45 76 70 134 70c130 0 160 -94 160 -204v-279h-80v265c0 76 -6 144 -99 144c-110 0 -117 -102 -117 -186v-223z" />
    <glyph glyph-name="afii10193" unicode="&#x45f;" horiz-adv-x="528" 
d="M457 0h-147v-144h-80v144h-154v470h80v-396h221v396h80v-470z" />
    <glyph glyph-name="nbspace" unicode="&#xa0;" horiz-adv-x="500" 
 />
    <glyph glyph-name="afii10062" unicode="&#x40e;" horiz-adv-x="571" 
d="M237 276l-251 478h94l203 -390l203 390h94l-395 -754h-96zM127 970l64 20c17 -45 46 -68 95 -68s78 23 95 68l64 -20c-7 -55 -77 -116 -159 -116c-81 0 -151 58 -159 116z" />
    <glyph glyph-name="afii10110" unicode="&#x45e;" horiz-adv-x="498" 
d="M214 44l-216 426h93l166 -337l152 337h91l-347 -734h-91zM97 694l64 20c17 -45 46 -68 95 -68s78 23 95 68l64 -20c-7 -55 -77 -116 -159 -116c-81 0 -151 58 -159 116z" />
    <glyph glyph-name="afii10057" unicode="&#x408;" horiz-adv-x="314" 
d="M236 754v-532c0 -60 0 -123 -38 -173c-31 -41 -79 -62 -130 -62c-50 0 -96 24 -134 56l47 65c27 -25 50 -43 89 -43c82 0 82 98 82 157v532h84z" />
    <glyph glyph-name="currency" unicode="&#xa4;" 
d="M66 498l36 36l42 -42c54 39 100 58 164 58s110 -19 164 -58l42 42l36 -36l-40 -40c37 -57 53 -101 53 -158s-16 -101 -53 -158l40 -40l-36 -36l-42 42c-54 -39 -100 -58 -164 -58s-110 19 -164 58l-42 -42l-36 36l40 40c-37 57 -53 101 -53 158s16 101 53 158zM308 486
c-108 0 -193 -79 -191 -186c2 -100 86 -186 191 -186s189 86 191 186c2 107 -83 186 -191 186z" />
    <glyph glyph-name="afii10050" unicode="&#x490;" horiz-adv-x="470" 
d="M469 676h-309v-676h-84v754h309v206h84v-284z" />
    <glyph glyph-name="brokenbar" unicode="&#xa6;" horiz-adv-x="570" 
d="M324 330v-330h-78v330h78zM324 825v-330h-78v330h78z" />
    <glyph glyph-name="section" unicode="&#xa7;" horiz-adv-x="592" 
d="M296 402c-61 0 -110 -49 -110 -110s49 -111 110 -111s111 50 111 111s-50 110 -111 110zM105 4h81c0 -67 29 -116 102 -116c64 0 103 35 103 100c0 74 -57 93 -116 116c-36 14 -81 30 -112 55c-42 33 -61 79 -61 132c0 73 37 135 105 163c-56 28 -88 77 -88 141
c0 105 89 172 189 172c52 0 112 -24 143 -67c25 -35 35 -86 36 -129h-80c-4 75 -34 119 -100 119c-60 0 -106 -38 -106 -101c0 -78 72 -95 145 -121c72 -26 144 -62 144 -179c0 -74 -41 -127 -105 -160c60 -31 88 -78 88 -146c0 -108 -81 -172 -186 -172
c-128 0 -177 75 -182 193z" />
    <glyph glyph-name="afii10023" unicode="&#x401;" horiz-adv-x="534" 
d="M76 0v754h391v-78h-307v-224h298v-78h-298v-296h307v-78h-391zM169 989c30 0 54 -24 54 -54s-24 -54 -54 -54s-54 24 -54 54s24 54 54 54zM366 989c30 0 54 -24 54 -54s-24 -54 -54 -54s-54 24 -54 54s24 54 54 54z" />
    <glyph glyph-name="copyright" unicode="&#xa9;" horiz-adv-x="800" 
d="M792 377c0 -217 -173 -390 -392 -390s-392 173 -392 390s173 390 392 390s392 -173 392 -390zM732 377c0 184 -153 330 -332 330s-332 -146 -332 -330s153 -330 332 -330s332 146 332 330zM553 188c-39 -29 -87 -45 -135 -45c-128 0 -236 104 -236 232
c0 130 106 236 236 236c50 0 94 -14 135 -44v-63c-36 38 -86 60 -138 60c-101 0 -183 -87 -183 -187c0 -99 82 -187 184 -187c51 0 101 24 137 60v-62z" />
    <glyph glyph-name="afii10053" unicode="&#x404;" horiz-adv-x="717" 
d="M663 61c-65 -47 -145 -74 -225 -74c-213 0 -393 173 -393 387c0 216 177 393 393 393c84 0 158 -24 225 -74v-104c-60 62 -143 100 -230 100c-144 0 -264 -107 -296 -242h422v-78h-430c4 -163 140 -304 306 -304c85 0 168 40 228 100v-104z" />
    <glyph glyph-name="guillemotleft" unicode="&#xab;" horiz-adv-x="500" 
d="M297 240l135 -166l-53 -41l-168 207l168 213l53 -42zM127 240l135 -166l-53 -41l-168 207l168 213l53 -42z" />
    <glyph glyph-name="logicalnot" unicode="&#xac;" 
d="M472 103v192h-406v78h484v-270h-78z" />
    <glyph glyph-name="registered" unicode="&#xae;" horiz-adv-x="800" 
d="M792 377c0 -217 -173 -390 -392 -390s-392 173 -392 390s173 390 392 390s392 -173 392 -390zM732 377c0 184 -153 330 -332 330s-332 -146 -332 -330s153 -330 332 -330s332 146 332 330zM544 151h-62l-136 199h-13v-199h-50v452h65c86 0 166 -22 166 -124
c0 -70 -44 -119 -114 -125zM463 475c0 74 -54 82 -115 82h-15v-163h16c57 0 114 11 114 81z" />
    <glyph glyph-name="afii10056" unicode="&#x407;" horiz-adv-x="239" 
d="M162 754v-754h-84v754h84zM21 989c30 0 54 -24 54 -54s-24 -54 -54 -54s-54 24 -54 54s24 54 54 54zM218 989c30 0 54 -24 54 -54s-24 -54 -54 -54s-54 24 -54 54s24 54 54 54z" />
    <glyph glyph-name="degree" unicode="&#xb0;" horiz-adv-x="400" 
d="M350 617c0 -83 -68 -150 -150 -150c-83 0 -149 67 -150 150c0 82 67 150 150 150c82 0 150 -68 150 -150zM302 617c0 56 -46 102 -103 102c-56 0 -101 -46 -101 -102c1 -57 45 -102 102 -102c56 0 102 45 102 102z" />
    <glyph glyph-name="plusminus" unicode="&#xb1;" 
d="M269 498h78v-153h203v-78h-203v-153h-78v153h-203v78h203v153zM66 0v78h484v-78h-484z" />
    <glyph glyph-name="afii10103" unicode="&#x456;" horiz-adv-x="262" 
d="M171 470v-470h-80v470h80zM131 704c31 0 57 -26 57 -57c0 -32 -26 -57 -57 -57s-57 25 -57 57c0 31 26 57 57 57z" />
    <glyph glyph-name="afii10098" unicode="&#x491;" horiz-adv-x="398" 
d="M390 396h-234v-396h-80v470h234v144h80v-218z" />
    <glyph glyph-name="mu" unicode="&#x3bc;" horiz-adv-x="512" 
d="M150 470v-262c0 -79 9 -147 106 -147s106 68 106 147v262h80v-271c0 -125 -47 -212 -186 -212c-34 0 -63 6 -106 47v-298h-80v734h80z" />
    <glyph glyph-name="paragraph" unicode="&#xb6;" horiz-adv-x="592" 
d="M534 754v-65h-58v-842h-65v842h-81v-842h-65v436c-113 0 -196 79 -206 214c-9 121 83 257 215 257h260zM265 -153h65h-65z" />
    <glyph glyph-name="periodcentered" unicode="&#xb7;" horiz-adv-x="308" 
d="M154 311c31 0 56 -25 56 -55c0 -31 -25 -57 -56 -57s-56 26 -56 57c0 30 25 55 56 55z" />
    <glyph glyph-name="afii10071" unicode="&#x451;" horiz-adv-x="519" 
d="M485 218h-369c1 -87 63 -157 154 -157c68 0 112 41 143 97l68 -39c-45 -84 -121 -132 -217 -132c-140 0 -230 107 -230 242c0 139 81 254 228 254c151 0 231 -125 223 -265zM120 286h281c-11 68 -68 123 -138 123c-69 0 -133 -55 -143 -123zM161 705c30 0 54 -24 54 -54
s-24 -54 -54 -54s-54 24 -54 54s24 54 54 54zM358 705c30 0 54 -24 54 -54s-24 -54 -54 -54s-54 24 -54 54s24 54 54 54z" />
    <glyph glyph-name="afii61352" unicode="&#x2116;" horiz-adv-x="1131" 
d="M923 129c-89 0 -161 65 -161 148s71 150 161 150s161 -67 161 -150s-72 -148 -161 -148zM923 368c-56 0 -94 -41 -94 -90c0 -50 38 -90 94 -90s94 40 94 90c0 49 -38 90 -94 90zM1076 0h-305v68h305v-68zM81 0v754h30l508 -579v579h84v-754h-32l-506 576v-576h-84z" />
    <glyph glyph-name="afii10101" unicode="&#x454;" horiz-adv-x="476" 
d="M436 35c-46 -31 -93 -48 -149 -48c-142 0 -250 106 -250 248c0 140 113 248 251 248c51 0 103 -17 145 -47v-106h-2c-37 47 -83 79 -146 79c-80 0 -140 -54 -160 -125h238v-68h-243c8 -85 70 -155 161 -155c67 0 114 30 153 81h2v-107z" />
    <glyph glyph-name="guillemotright" unicode="&#xbb;" horiz-adv-x="500" 
d="M68 74l135 166l-135 171l53 42l168 -213l-168 -207zM238 74l135 166l-135 171l53 42l168 -213l-168 -207z" />
    <glyph glyph-name="afii10105" unicode="&#x458;" horiz-adv-x="262" 
d="M171 470v-734h-80v734h80zM131 704c31 0 57 -26 57 -57c0 -32 -26 -57 -57 -57s-57 25 -57 57c0 31 26 57 57 57z" />
    <glyph glyph-name="afii10054" unicode="&#x405;" horiz-adv-x="559" 
d="M485 650l-67 -43c-30 52 -66 82 -130 82c-67 0 -125 -48 -125 -117c0 -65 67 -95 118 -118l50 -22c98 -43 181 -92 181 -212c0 -132 -106 -233 -237 -233c-121 0 -211 78 -235 195l82 23c11 -77 70 -140 151 -140s155 62 155 147c0 88 -68 119 -139 150l-46 20
c-89 39 -164 85 -164 193c0 117 99 192 211 192c84 0 155 -43 195 -117z" />
    <glyph glyph-name="afii10102" unicode="&#x455;" horiz-adv-x="399" 
d="M333 396l-67 -35c-11 25 -35 48 -64 48c-28 0 -58 -22 -58 -52c0 -43 54 -59 109 -82s109 -56 109 -135c0 -89 -72 -153 -159 -153c-79 0 -141 45 -166 119l71 30c20 -44 43 -75 96 -75c43 0 76 29 76 72c0 105 -212 69 -212 217c0 79 64 133 140 133
c54 0 104 -38 125 -87z" />
    <glyph glyph-name="afii10104" unicode="&#x457;" horiz-adv-x="262" 
d="M171 470v-470h-80v470h80zM33 705c30 0 54 -24 54 -54s-24 -54 -54 -54s-54 24 -54 54s24 54 54 54zM230 705c30 0 54 -24 54 -54s-24 -54 -54 -54s-54 24 -54 54s24 54 54 54z" />
    <glyph glyph-name="afii10017" unicode="&#x410;" horiz-adv-x="699" 
d="M511 214h-322l-91 -214h-92l332 754h32l323 -754h-93zM478 292l-126 302l-129 -302h255z" />
    <glyph glyph-name="afii10018" unicode="&#x411;" horiz-adv-x="558" 
d="M160 350v-272h84c94 0 193 23 193 138c0 117 -112 134 -204 134h-73zM449 754v-78h-289v-248h118c122 0 243 -48 243 -208c0 -164 -121 -220 -270 -220h-175v754h373z" />
    <glyph glyph-name="afii10019" unicode="&#x412;" horiz-adv-x="568" 
d="M160 350v-272h84c94 0 193 23 193 138c0 117 -112 134 -204 134h-73zM76 0v754h124c137 0 252 -50 252 -204c0 -61 -23 -113 -74 -147c90 -22 143 -103 143 -193c0 -150 -121 -210 -270 -210h-175zM160 676v-254h32c95 0 176 11 176 128c0 114 -72 126 -175 126h-33z" />
    <glyph glyph-name="afii10020" unicode="&#x413;" horiz-adv-x="470" 
d="M469 676h-309v-676h-84v754h393v-78z" />
    <glyph glyph-name="afii10021" unicode="&#x414;" horiz-adv-x="714" 
d="M709 -206h-84v206h-539v-206h-84v284h22c86 0 148 139 148 278v398h452v-676h85v-284zM540 78v598h-284v-290c0 -152 -35 -260 -92 -308h376z" />
    <glyph glyph-name="afii10022" unicode="&#x415;" horiz-adv-x="534" 
d="M76 0v754h391v-78h-307v-224h298v-78h-298v-296h307v-78h-391z" />
    <glyph glyph-name="afii10024" unicode="&#x416;" horiz-adv-x="933" 
d="M936 0h-119l-304 363l-12 -12v-351h-84v351l-12 12l-304 -363h-119l366 416l-344 338h113l297 -306h3v306h84v-306h3l297 306h113l-344 -338z" />
    <glyph glyph-name="afii10025" unicode="&#x417;" horiz-adv-x="561" 
d="M259 65c85 0 152 68 152 151c0 96 -93 141 -180 141h-47v78h47c80 0 159 27 159 122c0 80 -45 132 -132 132c-73 0 -113 -41 -139 -68l-52 61c28 31 102 85 193 85c133 0 214 -82 214 -206c0 -71 -45 -133 -107 -159c73 -25 128 -96 128 -191c0 -126 -108 -224 -239 -224
c-127 0 -204 86 -223 115l62 54c21 -27 79 -91 164 -91z" />
    <glyph glyph-name="afii10026" unicode="&#x418;" horiz-adv-x="714" 
d="M634 0h-84v557l-443 -557h-26v754h84v-560l443 560h26v-754z" />
    <glyph glyph-name="afii10027" unicode="&#x419;" horiz-adv-x="714" 
d="M216 970l64 20c17 -45 46 -68 95 -68s78 23 95 68l64 -20c-7 -55 -77 -116 -159 -116c-81 0 -151 58 -159 116zM634 0h-84v557l-443 -557h-26v754h84v-560l443 560h26v-754z" />
    <glyph glyph-name="afii10028" unicode="&#x41a;" horiz-adv-x="611" 
d="M160 431l321 323h113l-354 -351l366 -403h-116l-309 346l-21 -21v-325h-84v754h84v-323z" />
    <glyph glyph-name="afii10029" unicode="&#x41b;" horiz-adv-x="694" 
d="M146 754h468v-754h-84v676h-300v-440c0 -144 -63 -236 -192 -236h-22v74h8c95 0 122 78 122 186v494z" />
    <glyph glyph-name="afii10030" unicode="&#x41c;" horiz-adv-x="896" 
d="M21 0l145 754h27l255 -590l256 590h27l145 -754h-86l-97 510h-2l-229 -510h-28l-228 510h-2l-97 -510h-86z" />
    <glyph glyph-name="afii10031" unicode="&#x41d;" horiz-adv-x="714" 
d="M164 448h386v306h84v-754h-84v370h-386v-370h-84v754h84v-306z" />
    <glyph glyph-name="afii10032" unicode="&#x41e;" horiz-adv-x="862" 
d="M431 767c215 0 393 -175 393 -391c0 -217 -178 -389 -393 -389s-393 172 -393 389c0 216 178 391 393 391zM431 689c-173 0 -309 -141 -309 -312c0 -170 138 -312 309 -312s309 142 309 312c0 171 -136 312 -309 312z" />
    <glyph glyph-name="afii10033" unicode="&#x41f;" horiz-adv-x="714" 
d="M634 754v-754h-84v676h-386v-676h-84v754h554z" />
    <glyph glyph-name="afii10034" unicode="&#x420;" horiz-adv-x="503" 
d="M160 330v-330h-84v754h124c65 0 132 -2 187 -40c56 -39 85 -105 85 -172c0 -61 -25 -123 -72 -162c-51 -42 -116 -50 -179 -50h-61zM160 676v-268h56c93 0 172 28 172 136c0 123 -99 132 -197 132h-31z" />
    <glyph glyph-name="afii10035" unicode="&#x421;" horiz-adv-x="717" 
d="M651 693v-104c-60 62 -143 100 -230 100c-168 0 -304 -146 -304 -312s137 -312 306 -312c85 0 168 40 228 100v-104c-65 -47 -145 -74 -225 -74c-213 0 -393 173 -393 387c0 216 177 393 393 393c84 0 158 -24 225 -74z" />
    <glyph glyph-name="afii10036" unicode="&#x422;" horiz-adv-x="470" 
d="M276 676v-676h-84v676h-182v78h450v-78h-184z" />
    <glyph glyph-name="afii10037" unicode="&#x423;" horiz-adv-x="591" 
d="M257 276l-251 478h94l203 -390l203 390h94l-395 -754h-96z" />
    <glyph glyph-name="afii10038" unicode="&#x424;" horiz-adv-x="882" 
d="M842 396c0 -177 -136 -298 -346 -298h-14v-98h-84v98h-14c-210 0 -346 121 -346 298c0 171 111 295 356 295h4v63h84v-63h4c245 0 356 -124 356 -295zM758 398c0 162 -127 218 -276 218v-442c167 0 276 74 276 224zM398 174v442c-149 0 -276 -56 -276 -218
c0 -150 109 -224 276 -224z" />
    <glyph glyph-name="afii10039" unicode="&#x425;" horiz-adv-x="564" 
d="M236 390l-204 364h96l154 -284l154 284h96l-204 -364l223 -390h-96l-173 310l-173 -310h-96z" />
    <glyph glyph-name="afii10040" unicode="&#x426;" horiz-adv-x="714" 
d="M635 0h-555v754h84v-676h386v676h84v-676h85v-284h-84v206z" />
    <glyph glyph-name="afii10041" unicode="&#x427;" horiz-adv-x="623" 
d="M459 400v354h84v-754h-84v325c-44 -4 -124 -9 -169 -9c-121 0 -224 63 -224 180v258h84v-266c0 -76 68 -98 154 -98c37 0 117 4 155 10z" />
    <glyph glyph-name="afii10042" unicode="&#x428;" horiz-adv-x="1104" 
d="M594 78h346v676h84v-754h-944v754h84v-676h346v676h84v-676z" />
    <glyph glyph-name="afii10043" unicode="&#x429;" horiz-adv-x="1104" 
d="M1109 -206h-84v206h-945v754h84v-676h346v676h84v-676h346v676h84v-676h85v-284z" />
    <glyph glyph-name="afii10044" unicode="&#x42a;" horiz-adv-x="610" 
d="M240 350v-272h64c94 0 193 23 193 138c0 117 -112 134 -204 134h-53zM156 676h-146v78h230v-326h98c122 0 243 -48 243 -208c0 -164 -121 -220 -270 -220h-155v676z" />
    <glyph glyph-name="afii10045" unicode="&#x42b;" horiz-adv-x="744" 
d="M160 350v-272h64c94 0 193 23 193 138c0 117 -112 134 -204 134h-53zM160 754v-326h98c122 0 243 -48 243 -208c0 -164 -121 -220 -270 -220h-155v754h84zM580 754h84v-754h-84v754z" />
    <glyph glyph-name="afii10046" unicode="&#x42c;" horiz-adv-x="530" 
d="M160 350v-272h64c94 0 193 23 193 138c0 117 -112 134 -204 134h-53zM160 754v-326h98c122 0 243 -48 243 -208c0 -164 -121 -220 -270 -220h-155v754h84z" />
    <glyph glyph-name="afii10047" unicode="&#x42d;" horiz-adv-x="717" 
d="M684 374c0 -214 -180 -387 -393 -387c-80 0 -160 27 -225 74v104c60 -60 143 -100 228 -100c166 0 302 141 306 304h-430v78h422c-32 135 -152 242 -296 242c-87 0 -170 -38 -230 -100v104c67 50 141 74 225 74c216 0 393 -177 393 -393z" />
    <glyph glyph-name="afii10048" unicode="&#x42e;" horiz-adv-x="1062" 
d="M1024 376c0 -217 -178 -389 -393 -389c-213 0 -390 169 -393 383h-74v-370h-84v754h84v-306h81c34 182 196 319 386 319c215 0 393 -175 393 -391zM940 377c0 171 -136 312 -309 312s-309 -141 -309 -312c0 -170 138 -312 309 -312s309 142 309 312z" />
    <glyph glyph-name="afii10049" unicode="&#x42f;" horiz-adv-x="542" 
d="M464 0h-84v331h-21l-228 -331h-103l240 338c-116 10 -189 92 -189 208c0 170 133 208 276 208h109v-754zM380 405v271h-25c-101 0 -192 -12 -192 -136c0 -117 96 -135 191 -135h26z" />
    <glyph glyph-name="afii10065" unicode="&#x430;" horiz-adv-x="577" 
d="M271 409c-93 0 -153 -81 -153 -169c0 -92 54 -179 154 -179c103 0 157 83 157 178c0 94 -59 170 -158 170zM505 470v-470h-80v65h-2c-41 -52 -96 -78 -162 -78c-138 0 -225 117 -225 247c0 134 85 249 226 249c64 0 122 -30 161 -80h2v67h80z" />
    <glyph glyph-name="afii10066" unicode="&#x431;" horiz-adv-x="562" 
d="M528 234c0 -138 -110 -247 -247 -247c-139 0 -248 105 -248 267c0 304 130 451 292 507c68 24 94 35 101 64h96c-3 -60 -86 -114 -169 -133c-112 -25 -211 -136 -241 -283l5 -2c20 33 83 76 184 76c119 0 227 -111 227 -249zM448 235c0 95 -68 174 -167 174
s-167 -79 -167 -174c0 -96 68 -174 167 -174s167 78 167 174z" />
    <glyph glyph-name="afii10067" unicode="&#x432;" horiz-adv-x="500" 
d="M76 0v470h216c114 0 136 -72 136 -121c0 -42 -18 -72 -60 -91v-2c54 -8 94 -57 94 -118c0 -50 -22 -138 -156 -138h-230zM156 284h101c53 0 89 12 89 58c0 54 -64 54 -89 54h-101v-112zM156 74h126c55 0 98 15 98 69c0 36 -19 73 -95 73h-129v-142z" />
    <glyph glyph-name="afii10068" unicode="&#x433;" horiz-adv-x="398" 
d="M156 396v-396h-80v470h314v-74h-234z" />
    <glyph glyph-name="afii10069" unicode="&#x434;" horiz-adv-x="528" 
d="M529 -144h-80v144h-346v-144h-80v218c87 6 99 85 99 174v222h335v-396h72v-218zM377 74v322h-175v-189c0 -52 -12 -100 -53 -133h228z" />
    <glyph glyph-name="afii10070" unicode="&#x435;" horiz-adv-x="519" 
d="M485 218h-369c1 -87 63 -157 154 -157c68 0 112 41 143 97l68 -39c-45 -84 -121 -132 -217 -132c-140 0 -230 107 -230 242c0 139 81 254 228 254c151 0 231 -125 223 -265zM120 286h281c-11 68 -68 123 -138 123c-69 0 -133 -55 -143 -123z" />
    <glyph glyph-name="afii10072" unicode="&#x436;" horiz-adv-x="685" 
d="M682 0h-106l-186 206l-8 -8v-198h-80v198l-8 8l-186 -206h-106l240 255l-201 215h107l152 -183h2v183h80v-183h2l152 183h107l-201 -215z" />
    <glyph glyph-name="afii10073" unicode="&#x437;" horiz-adv-x="439" 
d="M101 364l-42 59c26 27 87 60 159 60c96 0 164 -42 164 -131c0 -42 -32 -81 -76 -97v-2c52 -9 96 -54 96 -115c0 -97 -80 -151 -194 -151c-86 0 -151 48 -176 89l58 49c16 -29 63 -64 112 -64c39 0 118 15 118 75c0 44 -20 79 -98 79h-54v66h36c60 0 96 25 96 69
c0 39 -34 59 -87 59c-64 0 -92 -27 -112 -45z" />
    <glyph glyph-name="afii10074" unicode="&#x438;" horiz-adv-x="528" 
d="M76 0v470h80v-306l280 306h21v-470h-80v306l-280 -306h-21z" />
    <glyph glyph-name="afii10075" unicode="&#x439;" horiz-adv-x="528" 
d="M114 694l64 20c17 -45 46 -68 95 -68s78 23 95 68l64 -20c-7 -55 -77 -116 -159 -116c-81 0 -151 58 -159 116zM76 0v470h80v-306l280 306h21v-470h-80v306l-280 -306h-21z" />
    <glyph glyph-name="afii10076" unicode="&#x43a;" horiz-adv-x="470" 
d="M152 470v-190l171 190h107l-201 -216l239 -254h-106l-189 198l-21 -21v-177h-80v470h80z" />
    <glyph glyph-name="afii10077" unicode="&#x43b;" horiz-adv-x="518" 
d="M99 470h348v-470h-80v396h-188v-256c0 -79 -46 -140 -148 -140h-14v78h2c56 0 80 23 80 97v295z" />
    <glyph glyph-name="afii10078" unicode="&#x43c;" horiz-adv-x="620" 
d="M618 0h-87l-82 274l-132 -274h-10l-137 273l-81 -273h-87l149 470h14l147 -303l148 303h14z" />
    <glyph glyph-name="afii10079" unicode="&#x43d;" horiz-adv-x="528" 
d="M156 214v-214h-80v470h80v-182h221v182h80v-470h-80v214h-221z" />
    <glyph glyph-name="afii10080" unicode="&#x43e;" horiz-adv-x="562" 
d="M281 -13c-137 0 -247 109 -247 247s109 249 247 249s247 -111 247 -249s-110 -247 -247 -247zM281 409c-99 0 -167 -79 -167 -174c0 -96 68 -174 167 -174s167 78 167 174c0 95 -68 174 -167 174z" />
    <glyph glyph-name="afii10081" unicode="&#x43f;" horiz-adv-x="528" 
d="M156 396v-396h-80v470h381v-470h-80v396h-221z" />
    <glyph glyph-name="afii10082" unicode="&#x440;" horiz-adv-x="577" 
d="M301 409c-93 0 -153 -81 -153 -169c0 -92 54 -179 154 -179c103 0 157 83 157 178c0 94 -59 170 -158 170zM152 470v-67h2c39 52 97 80 162 80c138 0 225 -119 225 -249c0 -134 -85 -247 -226 -247c-64 0 -123 28 -161 79h-2v-330h-80v734h80z" />
    <glyph glyph-name="afii10083" unicode="&#x441;" horiz-adv-x="476" 
d="M425 436v-106h-2c-37 47 -83 79 -146 79c-97 0 -166 -80 -166 -174c0 -93 64 -174 162 -174c67 0 114 30 153 81h2v-107c-46 -31 -93 -48 -149 -48c-142 0 -250 106 -250 248c0 140 113 248 251 248c51 0 103 -17 145 -47z" />
    <glyph glyph-name="afii10084" unicode="&#x442;" horiz-adv-x="433" 
d="M259 396v-396h-80v396h-159v74h398v-74h-159z" />
    <glyph glyph-name="afii10085" unicode="&#x443;" horiz-adv-x="498" 
d="M214 44l-216 426h93l166 -337l152 337h91l-347 -734h-91z" />
    <glyph glyph-name="afii10086" unicode="&#x444;" horiz-adv-x="682" 
d="M652 234c0 -150 -129 -241 -266 -241v-257h-80v257c-137 0 -266 91 -266 241c0 154 126 244 266 244v347h80v-347c140 0 266 -90 266 -244zM572 234c0 106 -94 169 -186 169v-336c95 0 186 64 186 167zM306 67v336c-92 0 -186 -63 -186 -169c0 -103 91 -167 186 -167z
" />
    <glyph glyph-name="afii10087" unicode="&#x445;" horiz-adv-x="498" 
d="M201 250l-171 220h98l123 -160l123 160h100l-172 -220l195 -250h-97l-149 191l-150 -191h-100z" />
    <glyph glyph-name="afii10088" unicode="&#x446;" horiz-adv-x="528" 
d="M529 -144h-80v144h-373v470h80v-396h221v396h80v-396h72v-218z" />
    <glyph glyph-name="afii10089" unicode="&#x447;" horiz-adv-x="486" 
d="M335 252v218h80v-470h-80v191c-38 -6 -102 -12 -125 -12c-102 0 -151 41 -151 148v143h80v-124c0 -91 52 -100 107 -100c29 0 60 2 89 6z" />
    <glyph glyph-name="afii10090" unicode="&#x448;" horiz-adv-x="761" 
d="M688 0h-612v470h80v-396h186v396h80v-396h186v396h80v-470z" />
    <glyph glyph-name="afii10091" unicode="&#x449;" horiz-adv-x="761" 
d="M760 -144h-80v144h-604v470h80v-396h186v396h80v-396h186v396h80v-396h72v-218z" />
    <glyph glyph-name="afii10092" unicode="&#x44a;" horiz-adv-x="596" 
d="M556 156c0 -64 -25 -156 -159 -156h-231v396h-146v74h226v-168h128c124 0 182 -47 182 -146zM474 151c0 35 -22 77 -98 77h-130v-154h127c29 0 101 15 101 77z" />
    <glyph glyph-name="afii10093" unicode="&#x44b;" horiz-adv-x="670" 
d="M156 74h117c29 0 101 15 101 77c0 35 -22 77 -98 77h-120v-154zM76 0v470h80v-168h118c124 0 182 -47 182 -146c0 -64 -25 -156 -159 -156h-221zM527 470h80v-470h-80v470z" />
    <glyph glyph-name="afii10094" unicode="&#x44c;" horiz-adv-x="506" 
d="M156 74h127c29 0 101 15 101 77c0 35 -22 77 -98 77h-130v-154zM76 0v470h80v-168h128c124 0 182 -47 182 -146c0 -64 -25 -156 -159 -156h-231z" />
    <glyph glyph-name="afii10095" unicode="&#x44d;" horiz-adv-x="476" 
d="M446 235c0 -142 -108 -248 -250 -248c-56 0 -103 17 -149 48v107h2c39 -51 86 -81 153 -81c91 0 153 70 161 155h-243v68h238c-20 71 -80 125 -160 125c-63 0 -109 -32 -146 -79h-2v106c42 30 94 47 145 47c138 0 251 -108 251 -248z" />
    <glyph glyph-name="afii10096" unicode="&#x44e;" horiz-adv-x="750" 
d="M716 234c0 -138 -110 -247 -247 -247c-130 0 -236 99 -246 227h-67v-214h-80v470h80v-182h72c24 112 122 195 241 195c138 0 247 -111 247 -249zM636 235c0 95 -68 174 -167 174s-167 -79 -167 -174c0 -96 68 -174 167 -174s167 78 167 174z" />
    <glyph glyph-name="afii10097" unicode="&#x44f;" horiz-adv-x="514" 
d="M363 181h-88l-147 -181h-111l167 187c-47 7 -116 49 -116 131c0 68 38 152 165 152h210v-470h-80v181zM363 246v150h-91c-32 0 -124 -2 -124 -74c0 -43 29 -76 124 -76h91z" />
    <glyph glyph-name="Delta" unicode="&#x394;" horiz-adv-x="612" 
d="M608 0h-602l320 688zM72 49h412l-194 468z" />
    <glyph glyph-name="afii10055" unicode="&#x406;" horiz-adv-x="239" 
d="M162 754v-754h-84v754h84z" />
    <glyph glyph-name="approxequal" unicode="&#x2248;" horiz-adv-x="549" 
d="M527 370c-39 -66 -120 -91 -178 -74l-150 43c-95 27 -129 -37 -142 -53l-43 27c53 70 122 92 195 72l151 -42c20 -6 45 -5 79 9c16 7 39 24 51 42zM527 219c-39 -66 -120 -91 -178 -74l-150 43c-95 27 -129 -37 -142 -53l-43 27c53 70 122 92 195 72l151 -42
c20 -6 45 -5 79 9c16 7 39 24 51 42z" />
    <glyph glyph-name="divide" unicode="&#xf7;" 
d="M66 217v78h484v-78h-484zM308 124c31 0 57 -26 57 -57c0 -32 -26 -57 -57 -57s-57 25 -57 57c0 31 26 57 57 57zM308 502c31 0 57 -26 57 -57c0 -32 -26 -57 -57 -57s-57 25 -57 57c0 31 26 57 57 57z" />
    <glyph glyph-name="florin" unicode="&#x192;" 
d="M538 825l-15 -75c-16 7 -32 11 -50 11c-28 0 -50 -6 -64 -32c-13 -26 -21 -63 -26 -91l-25 -136h120l-11 -68h-121l-58 -314c-10 -56 -22 -132 -54 -180c-40 -58 -111 -85 -179 -80l-50 4l16 75l34 -1c119 -3 133 89 151 186l57 310h-82l11 68h84l28 158
c17 98 51 178 166 178c23 0 46 -4 68 -13z" />
    <glyph glyph-name="greaterequal" unicode="&#x2265;" 
d="M556 381l-484 -207v85l368 157l-368 157v85l484 -207v-70zM556 231l-484 -207v85l484 206v-84z" />
    <glyph glyph-name="hyphenminus" unicode="-" horiz-adv-x="264" 
d="M12 278h241v-74h-241v74z" />
    <glyph glyph-name="infinity" unicode="&#x221e;" horiz-adv-x="713" 
d="M486 391c97 43 193 -24 202 -112c8 -74 -55 -163 -147 -154c-103 10 -160 85 -184 106c-24 -21 -81 -96 -184 -106c-92 -9 -155 80 -147 154c9 88 105 155 202 112c47 -21 68 -39 129 -94c61 55 82 73 129 94zM205 345c-86 30 -130 -42 -129 -86c2 -59 61 -97 116 -84
c56 13 73 32 132 89c-57 48 -85 69 -119 81zM522 175c55 -13 114 25 116 84c1 44 -43 116 -129 86c-34 -12 -62 -33 -119 -81c59 -57 76 -76 132 -89z" />
    <glyph glyph-name="lessequal" unicode="&#x2264;" 
d="M550 658v-85l-368 -157l368 -157v-85l-484 207v70zM66 315l484 -206v-85l-484 207v84z" />
    <glyph glyph-name="notequal" unicode="&#x2260;" 
d="M550 139h-278l-89 -152l-64 34l69 118h-122v78h167l45 78c1 0 -212 0 -212 0v78h258l86 148l64 -34l-66 -114h142v-78h-188l-45 -78h233v-78z" />
    <glyph glyph-name="radical" unicode="&#x221a;" horiz-adv-x="549" 
d="M10 450l146 72l197 -403l127 798l35 -5l-150 -950l-243 502l-96 -47z" />
    <glyph glyph-name="sterling" unicode="&#xa3;" 
d="M208 268h-127v64h100l-19 37c-31 61 -64 113 -64 184c0 123 102 214 223 214c131 0 218 -98 219 -226l-82 -22c-1 86 -36 168 -135 168c-76 0 -139 -58 -139 -136c0 -79 59 -149 89 -219h142v-64h-120c4 -15 7 -30 7 -45c0 -36 -15 -77 -33 -108l5 -2
c35 -14 112 -43 145 -43c45 0 71 40 91 75l68 -41c-28 -62 -82 -116 -154 -116c-41 0 -83 15 -122 29c-40 14 -77 29 -110 29c-41 0 -70 -27 -90 -61l-65 44c32 52 82 96 146 97c19 27 32 59 32 93c0 16 -2 33 -7 49z" />
  </font>
</defs>
</svg>
